<?xml version="1.0" encoding="UTF-8" standalone="no"?>
<svg width="260px" height="275px" viewBox="0 0 260 275" version="1.1" xmlns="http://www.w3.org/2000/svg" xmlns:xlink="http://www.w3.org/1999/xlink">
    <!-- Generator: Sketch 49.3 (51167) - http://www.bohemiancoding.com/sketch -->
    <title>Ohio</title>
    <desc>Created with Sketch.</desc>
    <defs></defs>
    <g id="Ohio" stroke="none" stroke-width="1" fill="none" fill-rule="evenodd">
        <rect id="Bounds" x="0" y="0" width="260" height="275"></rect>
        <g id="ohio-map" transform="translate(12.000000, 2.000000)" fill="#5395B0" fill-rule="nonzero">
            <polygon id="Shape" points="1.2 27.9 51.3 25.9 73.8 24 75.3 25.9 85 28.3 89.3 31.1 96 33.7 99.6 37.7 104.7 39.5 109.9 35.4 113.3 40.5 105.6 41.3 100.5 44.8 105.1 46 110.2 42.5 120 43.7 124.8 47.2 129.4 48.4 134.4 45.5 139.2 44.3 144.2 42 154.6 38.6 159.1 39.7 168.5 39.7 178.7 32.8 184.9 25.9 189.4 22.4 193.9 18.8 204.5 13.7 234.2 0.9 233.9 3.2 238.5 99.8 235.3 101.7 233 101.5 231.3 105.9 233.7 110.3 235.4 124.6 233 129.6 229 143.1 229 148.4 227.7 154.1 225.3 154.4 226 158.5 224.3 163 224.2 168.3 221.3 177.3 214.9 181.8 208 190.3 197.8 197.2 190.1 193.3 185.3 198.6 184.8 203.2 177.4 205.8 175.1 210.2 174.5 215.4 171 219.7 173.9 224.7 170.5 229 168.2 233.4 164.4 225.9 160 223.6 156 227.8 153.7 232.2 153 237.4 151.7 239 149.9 244 151.3 246.5 150.8 255.8 145.8 258.1 145.2 263.3 140.5 267.4 133.8 269.6 129.1 270.1 128.6 269.5 125.7 264.5 121.6 259.8 117 258.7 112.9 254.1 110.5 245 104.9 247.3 99.2 251.2 95.7 255.5 91.7 255 86.8 256.8 82.7 252.1 77 250.3 72.4 250.3 68.9 254.6 63.7 253.9 55.4 245.3 52.6 244.4 42.6 244.3 38.2 242.6 31.8 232.4 30.1 227 19.1 220.9 11.4 222.3 7.2 218.3 0.4 221 1.5 97"></polygon>
        </g>
    </g>
</svg>